<svg width="24" height="24" viewBox="0 0 24 24" fill="none" xmlns="http://www.w3.org/2000/svg">
<path d="M6 22V17.75C5.35 17.4667 4.779 17.0877 4.287 16.613C3.795 16.1383 3.37834 15.6007 3.037 15C2.69567 14.4 2.43734 13.7583 2.262 13.075C2.08667 12.3917 1.99934 11.7 2 11C2 8.36667 2.93334 6.20833 4.8 4.525C6.66667 2.84167 9.06667 2 12 2C14.9333 2 17.3333 2.84167 19.2 4.525C21.0667 6.20833 22 8.36667 22 11C22 11.7 21.9127 12.3917 21.738 13.075C21.5633 13.7583 21.305 14.4 20.963 15C20.621 15.6 20.2043 16.1377 19.713 16.613C19.2217 17.0883 18.6507 17.4673 18 17.75V22H6ZM8 20H9V22H11V20H13V22H15V20H16V16.45C16.6333 16.3 17.196 16.05 17.688 15.7C18.18 15.35 18.5967 14.9333 18.938 14.45C19.2793 13.9667 19.5417 13.4333 19.725 12.85C19.9083 12.2667 20 11.65 20 11C20 8.91667 19.2627 7.22933 17.788 5.938C16.3133 4.64667 14.384 4.00067 12 4C9.61667 4 7.68734 4.646 6.212 5.938C4.73667 7.23 3.99934 8.91733 4 11C4 11.65 4.09167 12.2667 4.275 12.85C4.45834 13.4333 4.721 13.9667 5.063 14.45C5.40434 14.9333 5.825 15.35 6.325 15.7C6.825 16.05 7.38334 16.3 8 16.45V20ZM10.5 15.75H13.5L12 12.75L10.5 15.75ZM8.5 13C9.05 13 9.521 12.8043 9.913 12.413C10.305 12.0217 10.5007 11.5507 10.5 11C10.5 10.45 10.3043 9.97933 9.913 9.588C9.52167 9.19667 9.05067 9.00067 8.5 9C7.95 9 7.47934 9.196 7.088 9.588C6.69667 9.98 6.50067 10.4507 6.5 11C6.5 11.55 6.696 12.021 7.088 12.413C7.48 12.805 7.95067 13.0007 8.5 13ZM15.5 13C16.05 13 16.521 12.8043 16.913 12.413C17.305 12.0217 17.5007 11.5507 17.5 11C17.5 10.45 17.3043 9.97933 16.913 9.588C16.5217 9.19667 16.0507 9.00067 15.5 9C14.95 9 14.4793 9.196 14.088 9.588C13.6967 9.98 13.5007 10.4507 13.5 11C13.5 11.55 13.696 12.021 14.088 12.413C14.48 12.805 14.9507 13.0007 15.5 13ZM8 20V16.45C7.38334 16.3 6.825 16.05 6.325 15.7C5.825 15.35 5.404 14.9333 5.062 14.45C4.72067 13.9667 4.45834 13.4333 4.275 12.85C4.09167 12.2667 4 11.65 4 11C3.99934 8.91733 4.73667 7.23 6.212 5.938C7.68734 4.646 9.61667 4 12 4C14.384 4.00067 16.3133 4.64667 17.788 5.938C19.2627 7.22933 20 8.91667 20 11C20 11.65 19.9083 12.2667 19.725 12.85C19.5417 13.4333 19.2793 13.9667 18.938 14.45C18.5967 14.9333 18.18 15.35 17.688 15.7C17.196 16.05 16.6333 16.3 16 16.45V20H8Z" fill="black"/>
</svg>
